<?xml version="1.0" encoding="UTF-8"?>
<svg id="Layer_1" data-name="Layer 1" xmlns="http://www.w3.org/2000/svg" xmlns:xlink="http://www.w3.org/1999/xlink" viewBox="0 0 1920 1080">
  <defs>
    <style>
      .cls-1 {
        fill: url(#linear-gradient-8);
      }

      .cls-2 {
        fill: url(#linear-gradient-7);
      }

      .cls-3 {
        fill: url(#linear-gradient-5);
      }

      .cls-4 {
        fill: url(#linear-gradient-6);
      }

      .cls-5 {
        fill: url(#linear-gradient-9);
      }

      .cls-6 {
        fill: url(#linear-gradient-4);
      }

      .cls-7 {
        fill: url(#linear-gradient-3);
      }

      .cls-8 {
        fill: url(#linear-gradient-2);
      }

      .cls-9 {
        fill: url(#linear-gradient);
      }

      .cls-10 {
        fill: url(#linear-gradient-10);
      }

      .cls-11 {
        fill: url(#linear-gradient-11);
      }

      .cls-12 {
        fill: url(#linear-gradient-12);
      }
    </style>
    <linearGradient id="linear-gradient" x1="743.25" y1="375.17" x2="1564.48" y2="758" gradientUnits="userSpaceOnUse">
      <stop offset=".14" stop-color="#010101"/>
      <stop offset="1" stop-color="#a21c48"/>
    </linearGradient>
    <linearGradient id="linear-gradient-2" x1="768.55" y1="320.91" x2="1589.77" y2="703.74" xlink:href="#linear-gradient"/>
    <linearGradient id="linear-gradient-3" x1="806.66" y1="239.17" x2="1627.88" y2="621.99" xlink:href="#linear-gradient"/>
    <linearGradient id="linear-gradient-4" x1="841.19" y1="165.09" x2="1662.41" y2="547.92" xlink:href="#linear-gradient"/>
    <linearGradient id="linear-gradient-5" x1="907.08" y1="23.75" x2="1728.3" y2="406.57" xlink:href="#linear-gradient"/>
    <linearGradient id="linear-gradient-6" x1="647.69" y1="580.18" x2="1468.91" y2="963.01" xlink:href="#linear-gradient"/>
    <linearGradient id="linear-gradient-7" x1="660.44" y1="552.82" x2="1481.66" y2="935.65" xlink:href="#linear-gradient"/>
    <linearGradient id="linear-gradient-8" x1="708.36" y1="450.02" x2="1529.59" y2="832.84" xlink:href="#linear-gradient"/>
    <linearGradient id="linear-gradient-9" x1="734.57" y1="393.81" x2="1555.79" y2="776.63" xlink:href="#linear-gradient"/>
    <linearGradient id="linear-gradient-10" x1="63.05" y1="478.39" x2="656.47" y2="478.39" gradientUnits="userSpaceOnUse">
      <stop offset="0" stop-color="#a21c48"/>
      <stop offset="0" stop-color="#9c1b45"/>
      <stop offset="1" stop-color="#010101"/>
    </linearGradient>
    <linearGradient id="linear-gradient-11" x1="136.37" y1="827.26" x2="401.55" y2="827.26" gradientTransform="translate(-558.3 1096.22) rotate(-90)" xlink:href="#linear-gradient"/>
    <linearGradient id="linear-gradient-12" x1="433.31" y1="827.26" x2="531.82" y2="827.26" gradientUnits="userSpaceOnUse">
      <stop offset="0" stop-color="#010101"/>
      <stop offset="1" stop-color="#a21c48"/>
    </linearGradient>
  </defs>
  <g>
    <path class="cls-9" d="M818.07,314.17h124.23c50.17,0,76.05,28.67,76.05,68.09,0,25.88-11.94,45.79-32.65,56.54v.8c27.87,9.95,44.59,33.05,44.59,64.1,0,40.62-26.28,70.88-77.64,70.88h-134.58v-260.4ZM933.54,418.1c19.11,0,27.08-11.15,27.08-25.09s-5.97-25.09-27.08-25.09h-57.34v50.17h57.34ZM941.5,520.82c21.5,0,29.07-11.95,29.07-26.68s-9.95-27.47-28.67-27.47h-65.7v54.15h65.3Z"/>
    <path class="cls-8" d="M1039.86,461.49c0-60.12,35.44-88.79,87.6-88.79s86.8,28.27,87.2,89.59v1.19h-53.75v-1.99c0-29.07-13.94-38.62-33.45-38.62s-33.85,9.56-33.85,38.62v113.08h-53.75v-113.08Z"/>
    <path class="cls-7" d="M1211.09,478.62c0-63.31,43.8-105.91,106.31-105.91s104.72,41.41,104.72,105.51v96.36h-49.37v-35.44c-11.15,26.68-35.44,40.61-65.3,40.61-45.39,0-96.36-33.45-96.36-101.13ZM1368.37,476.23c0-31.46-20.71-53.36-51.37-53.36s-51.36,21.9-51.36,53.36,20.7,53.36,51.36,53.36,51.37-21.9,51.37-53.36Z"/>
    <path class="cls-6" d="M1440.84,472.64c0-66.1,39.02-99.94,97.15-99.94s97.15,33.45,97.15,99.94v101.93h-53.75v-101.93c0-34.24-17.52-49.77-43.4-49.77s-43.4,15.53-43.4,49.77v101.93h-53.75v-101.93Z"/>
    <path class="cls-3" d="M1645.92,473.84c0-67.69,50.57-101.13,96.76-101.13,25.88,0,47.38,10.35,60.52,30.26v-111.09h53.75v182.36c0,65.3-43.8,105.52-104.72,105.52s-106.31-42.61-106.31-105.91ZM1803.2,476.23c0-31.46-20.7-53.36-51.36-53.36s-51.36,21.9-51.36,53.36,20.7,53.36,51.36,53.36,51.36-21.9,51.36-53.36Z"/>
    <path class="cls-4" d="M816.8,705.87v-123.74h36.47v75.38c8.92-13.51,23.51-20.53,41.07-20.53,31.34,0,65.65,22.69,65.65,68.62,0,42.96-29.72,71.87-72.14,71.87s-71.06-27.29-71.06-71.6ZM922.98,707.22c0-21.35-14.05-36.2-34.85-36.2s-34.85,14.86-34.85,36.2,14.05,36.2,34.85,36.2,34.85-14.86,34.85-36.2Z"/>
    <path class="cls-2" d="M968.38,787.73h36.48c4.59,10.54,13.51,15.13,28.1,15.13,19.72,0,29.72-9.46,29.72-32.42v-14.86c-7.84,12.97-20.53,19.99-36.47,19.99-29.18,0-58.9-19.45-58.9-67.81v-67.27h36.47v67.27c0,23.23,11.89,33.77,29.45,33.77s29.45-11.08,29.45-33.77v-67.27h36.47v128.87c0,46.47-29.72,65.11-66.19,65.11-31.61,0-57.55-14.59-64.57-46.74Z"/>
    <path class="cls-1" d="M1174.26,709.66v-69.16h36.47v69.16c0,23.23,11.89,33.77,29.45,33.77s29.45-10.54,29.45-33.77v-69.16h36.47v69.16c0,44.85-26.48,67.81-65.92,67.81s-65.92-22.69-65.92-67.81Z"/>
    <path class="cls-5" d="M1309.63,640.49h39.45l33.23,99.15,33.23-99.15h38.36l-49.98,133.46h-44.04l-50.25-133.46Z"/>
  </g>
  <path class="cls-10" d="M605.17,367.75c-28.35,0-51.34,22.95-51.34,51.3v143.39c0,65.4-33.46,95.04-82.92,95.04-10.37,0-20.05-1.29-28.85-4.01,15.53-29.22,24.06-63.79,24.06-102.46,0-75.59-33-128.82-78.08-159.98-14.52-10.05-30.24-17.84-46.55-23.28-19.68-6.64-40.14-9.91-60.15-9.91-49.46,0-90.52,19.77-115.6,57.8v-160.81c0-28.39-23-51.34-51.34-51.34-14.15,0-27.01,5.72-36.32,15.03-9.26,9.31-15.03,22.12-15.03,36.32v296.96c0,124.72,83.65,201.51,200.03,201.51,39.08,0,74.3-8.71,104.03-24.7h.05c28.67,16.45,63.84,24.7,103.75,24.7,111.03,0,185.56-64.62,185.56-190.86v-143.39c0-28.35-22.95-51.3-51.3-51.3ZM263.82,657.47c-58.54,0-98.08-41.8-98.08-101.91s39.55-101.91,98.08-101.91c7.51,0,14.7.69,21.52,2.03,46.51,8.99,76.56,47.52,76.56,99.88,0,46.32-23.51,81.81-61.12,95.59-11.15,4.1-23.55,6.31-36.96,6.31Z"/>
  <rect class="cls-11" x="220.5" y="694.68" width="96.92" height="265.17" rx="24.61" ry="24.61" transform="translate(1096.22 558.3) rotate(90)"/>
  <circle class="cls-12" cx="482.57" cy="827.26" r="49.26"/>
</svg>